<mxfile host="65bd71144e">
    <diagram id="Wvv7pnAJO43W1NHOl9yh" name="Page-1">
        <mxGraphModel dx="1386" dy="779" grid="1" gridSize="10" guides="1" tooltips="1" connect="1" arrows="1" fold="1" page="1" pageScale="1" pageWidth="1654" pageHeight="1169" background="none" math="0" shadow="1">
            <root>
                <mxCell id="0"/>
                <mxCell id="1" parent="0"/>
                <mxCell id="162" value="Cross-Functional Flowchart" style="shape=table;childLayout=tableLayout;startSize=40;collapsible=0;recursiveResize=0;expand=0;fontStyle=1;rounded=0;" parent="1" vertex="1">
                    <mxGeometry x="90" y="30" width="1520" height="1090" as="geometry"/>
                </mxCell>
                <mxCell id="163" value="Structure" style="shape=tableRow;horizontal=0;startSize=40;swimlaneHead=0;swimlaneBody=0;top=0;left=0;bottom=0;right=0;dropTarget=0;fillColor=none;collapsible=0;recursiveResize=0;expand=0;fontStyle=1;rounded=0;" parent="162" vertex="1">
                    <mxGeometry y="40" width="1520" height="336" as="geometry"/>
                </mxCell>
                <mxCell id="164" value="Material Center" style="swimlane;swimlaneHead=0;swimlaneBody=0;fontStyle=0;connectable=0;fillColor=none;startSize=40;collapsible=0;recursiveResize=0;expand=0;fontStyle=1;rounded=0;" parent="163" vertex="1">
                    <mxGeometry x="40" width="350" height="336" as="geometry">
                        <mxRectangle width="350" height="336" as="alternateBounds"/>
                    </mxGeometry>
                </mxCell>
                <mxCell id="336" style="edgeStyle=none;jumpStyle=line;html=1;exitX=0.5;exitY=1;exitDx=0;exitDy=0;entryX=0.5;entryY=0;entryDx=0;entryDy=0;strokeColor=default;rounded=0;" parent="164" source="176" target="177" edge="1">
                    <mxGeometry relative="1" as="geometry"/>
                </mxCell>
                <mxCell id="176" value="DO&amp;nbsp;" style="shape=process;whiteSpace=wrap;html=1;backgroundOutline=1;rounded=0;" parent="164" vertex="1">
                    <mxGeometry x="20" y="70" width="120" height="40" as="geometry"/>
                </mxCell>
                <mxCell id="337" style="edgeStyle=none;jumpStyle=line;html=1;exitX=0.5;exitY=1;exitDx=0;exitDy=0;entryX=0.5;entryY=0;entryDx=0;entryDy=0;strokeColor=default;rounded=0;" parent="164" source="177" target="178" edge="1">
                    <mxGeometry relative="1" as="geometry"/>
                </mxCell>
                <mxCell id="177" value="DO Receive&amp;nbsp;" style="shape=process;whiteSpace=wrap;html=1;backgroundOutline=1;rounded=0;" parent="164" vertex="1">
                    <mxGeometry x="20" y="140" width="120" height="40" as="geometry"/>
                </mxCell>
                <mxCell id="338" style="edgeStyle=none;jumpStyle=line;html=1;exitX=0.5;exitY=1;exitDx=0;exitDy=0;strokeColor=default;rounded=0;" parent="164" source="178" target="179" edge="1">
                    <mxGeometry relative="1" as="geometry"/>
                </mxCell>
                <mxCell id="178" value="DO Request&amp;nbsp;" style="shape=process;whiteSpace=wrap;html=1;backgroundOutline=1;rounded=0;" parent="164" vertex="1">
                    <mxGeometry x="20" y="210" width="120" height="40" as="geometry"/>
                </mxCell>
                <mxCell id="218" style="edgeStyle=none;html=1;exitX=1;exitY=0.5;exitDx=0;exitDy=0;rounded=0;" parent="164" source="179" target="217" edge="1">
                    <mxGeometry relative="1" as="geometry"/>
                </mxCell>
                <mxCell id="179" value="DO Issue&amp;nbsp;" style="shape=process;whiteSpace=wrap;html=1;backgroundOutline=1;rounded=0;" parent="164" vertex="1">
                    <mxGeometry x="20" y="270" width="120" height="40" as="geometry"/>
                </mxCell>
                <mxCell id="217" value="" style="ellipse;whiteSpace=wrap;html=1;aspect=fixed;rounded=0;" parent="164" vertex="1">
                    <mxGeometry x="310" y="280" width="20" height="20" as="geometry"/>
                </mxCell>
                <mxCell id="404" style="edgeStyle=none;html=1;exitX=0.5;exitY=1;exitDx=0;exitDy=0;entryX=0.5;entryY=0;entryDx=0;entryDy=0;rounded=0;" parent="164" source="399" target="400" edge="1">
                    <mxGeometry relative="1" as="geometry"/>
                </mxCell>
                <mxCell id="399" value="Material Request" style="shape=process;whiteSpace=wrap;html=1;backgroundOutline=1;rounded=0;" parent="164" vertex="1">
                    <mxGeometry x="180" y="140" width="120" height="40" as="geometry"/>
                </mxCell>
                <mxCell id="400" value="Material Issue" style="shape=process;whiteSpace=wrap;html=1;backgroundOutline=1;rounded=0;" parent="164" vertex="1">
                    <mxGeometry x="180" y="210" width="120" height="40" as="geometry"/>
                </mxCell>
                <mxCell id="403" style="edgeStyle=none;html=1;exitX=0.5;exitY=1;exitDx=0;exitDy=0;entryX=0.5;entryY=0;entryDx=0;entryDy=0;rounded=0;" parent="164" source="401" target="399" edge="1">
                    <mxGeometry relative="1" as="geometry"/>
                </mxCell>
                <mxCell id="401" value="Material Receive" style="shape=process;whiteSpace=wrap;html=1;backgroundOutline=1;rounded=0;" parent="164" vertex="1">
                    <mxGeometry x="180" y="70" width="120" height="40" as="geometry"/>
                </mxCell>
                <mxCell id="165" value="Project Control" style="swimlane;swimlaneHead=0;swimlaneBody=0;fontStyle=0;connectable=0;fillColor=none;startSize=40;collapsible=0;recursiveResize=0;expand=0;fontStyle=1;rounded=0;" parent="163" vertex="1">
                    <mxGeometry x="390" width="670" height="336" as="geometry">
                        <mxRectangle width="670" height="336" as="alternateBounds"/>
                    </mxGeometry>
                </mxCell>
                <mxCell id="195" style="edgeStyle=none;html=1;exitX=1;exitY=0.5;exitDx=0;exitDy=0;rounded=0;" parent="165" source="181" target="183" edge="1">
                    <mxGeometry relative="1" as="geometry"/>
                </mxCell>
                <mxCell id="181" value="Fit Up" style="rounded=0;whiteSpace=wrap;html=1;" parent="165" vertex="1">
                    <mxGeometry x="40" y="130" width="120" height="40" as="geometry"/>
                </mxCell>
                <mxCell id="341" style="edgeStyle=none;jumpStyle=line;html=1;exitX=0.5;exitY=1;exitDx=0;exitDy=0;entryX=0.5;entryY=0;entryDx=0;entryDy=0;strokeColor=default;rounded=0;" parent="165" source="183" target="204" edge="1">
                    <mxGeometry relative="1" as="geometry"/>
                </mxCell>
                <mxCell id="183" value="Weld Record" style="rounded=0;whiteSpace=wrap;html=1;" parent="165" vertex="1">
                    <mxGeometry x="223" y="130" width="120" height="40" as="geometry"/>
                </mxCell>
                <mxCell id="184" value="Erection" style="rounded=0;whiteSpace=wrap;html=1;" parent="165" vertex="1">
                    <mxGeometry x="223" y="270" width="120" height="40" as="geometry"/>
                </mxCell>
                <mxCell id="186" value="Fireproof" style="rounded=0;whiteSpace=wrap;html=1;" parent="165" vertex="1">
                    <mxGeometry x="370" y="270" width="120" height="40" as="geometry"/>
                </mxCell>
                <mxCell id="187" value="Paint" style="rounded=0;whiteSpace=wrap;html=1;" parent="165" vertex="1">
                    <mxGeometry x="430" y="200" width="120" height="40" as="geometry"/>
                </mxCell>
                <mxCell id="189" value="Bolt Record" style="rounded=0;whiteSpace=wrap;html=1;" parent="165" vertex="1">
                    <mxGeometry x="40" y="270" width="120" height="40" as="geometry"/>
                </mxCell>
                <mxCell id="340" style="edgeStyle=none;jumpStyle=line;html=1;exitX=0.5;exitY=1;exitDx=0;exitDy=0;entryX=0.5;entryY=0;entryDx=0;entryDy=0;strokeColor=default;rounded=0;" parent="165" source="204" target="184" edge="1">
                    <mxGeometry relative="1" as="geometry"/>
                </mxCell>
                <mxCell id="204" value="" style="rhombus;whiteSpace=wrap;html=1;rounded=0;" parent="165" vertex="1">
                    <mxGeometry x="243" y="200" width="80" height="40" as="geometry"/>
                </mxCell>
                <mxCell id="345" value="Coatback" style="rounded=0;whiteSpace=wrap;html=1;" parent="165" vertex="1">
                    <mxGeometry x="520" y="270" width="120" height="40" as="geometry"/>
                </mxCell>
                <mxCell id="166" value="QA/QC" style="swimlane;swimlaneHead=0;swimlaneBody=0;fontStyle=0;connectable=0;fillColor=none;startSize=40;collapsible=0;recursiveResize=0;expand=0;fontStyle=1;rounded=0;" parent="163" vertex="1">
                    <mxGeometry x="1060" width="460" height="336" as="geometry">
                        <mxRectangle width="460" height="336" as="alternateBounds"/>
                    </mxGeometry>
                </mxCell>
                <mxCell id="201" style="edgeStyle=none;html=1;exitX=1;exitY=0.5;exitDx=0;exitDy=0;entryX=0;entryY=0.5;entryDx=0;entryDy=0;rounded=0;" parent="166" source="196" target="197" edge="1">
                    <mxGeometry relative="1" as="geometry"/>
                </mxCell>
                <mxCell id="196" value="NDE Request" style="rounded=0;whiteSpace=wrap;html=1;" parent="166" vertex="1">
                    <mxGeometry x="60" y="130" width="120" height="40" as="geometry"/>
                </mxCell>
                <mxCell id="202" style="edgeStyle=none;html=1;exitX=0.5;exitY=1;exitDx=0;exitDy=0;entryX=0.5;entryY=0;entryDx=0;entryDy=0;rounded=0;" parent="166" source="197" target="198" edge="1">
                    <mxGeometry relative="1" as="geometry"/>
                </mxCell>
                <mxCell id="197" value="NDE Report" style="rounded=0;whiteSpace=wrap;html=1;" parent="166" vertex="1">
                    <mxGeometry x="250" y="130" width="120" height="40" as="geometry"/>
                </mxCell>
                <mxCell id="203" style="edgeStyle=none;html=1;exitX=0.5;exitY=1;exitDx=0;exitDy=0;rounded=0;" parent="166" source="198" target="199" edge="1">
                    <mxGeometry relative="1" as="geometry"/>
                </mxCell>
                <mxCell id="198" value="NDE Clear" style="rounded=0;whiteSpace=wrap;html=1;" parent="166" vertex="1">
                    <mxGeometry x="250" y="200" width="120" height="40" as="geometry"/>
                </mxCell>
                <mxCell id="199" value="Pack Status" style="rounded=0;whiteSpace=wrap;html=1;" parent="166" vertex="1">
                    <mxGeometry x="250" y="270" width="120" height="40" as="geometry"/>
                </mxCell>
                <mxCell id="353" style="edgeStyle=none;jumpStyle=line;html=1;exitX=0;exitY=0.5;exitDx=0;exitDy=0;entryX=1;entryY=0.5;entryDx=0;entryDy=0;strokeColor=default;rounded=0;" parent="166" source="351" target="352" edge="1">
                    <mxGeometry relative="1" as="geometry"/>
                </mxCell>
                <mxCell id="351" value="Welder&amp;nbsp;" style="rounded=0;whiteSpace=wrap;html=1;" parent="166" vertex="1">
                    <mxGeometry x="250" y="60" width="120" height="40" as="geometry"/>
                </mxCell>
                <mxCell id="352" value="WPS" style="rounded=0;whiteSpace=wrap;html=1;fillColor=none;" parent="166" vertex="1">
                    <mxGeometry x="60" y="60" width="120" height="40" as="geometry"/>
                </mxCell>
                <mxCell id="200" style="edgeStyle=none;html=1;exitX=1;exitY=0.5;exitDx=0;exitDy=0;rounded=0;" parent="163" source="183" target="196" edge="1">
                    <mxGeometry relative="1" as="geometry"/>
                </mxCell>
                <mxCell id="210" style="edgeStyle=none;html=1;exitX=0;exitY=0.5;exitDx=0;exitDy=0;entryX=1;entryY=0.5;entryDx=0;entryDy=0;rounded=0;" parent="163" source="198" target="187" edge="1">
                    <mxGeometry relative="1" as="geometry"/>
                </mxCell>
                <mxCell id="219" style="edgeStyle=none;html=1;exitX=1;exitY=0.5;exitDx=0;exitDy=0;entryX=0;entryY=0.5;entryDx=0;entryDy=0;rounded=0;" parent="163" source="217" target="189" edge="1">
                    <mxGeometry relative="1" as="geometry"/>
                </mxCell>
                <mxCell id="220" style="edgeStyle=none;html=1;exitX=0.5;exitY=0;exitDx=0;exitDy=0;entryX=-0.018;entryY=0.368;entryDx=0;entryDy=0;entryPerimeter=0;rounded=0;" parent="163" source="217" target="181" edge="1">
                    <mxGeometry relative="1" as="geometry">
                        <Array as="points">
                            <mxPoint x="360" y="145"/>
                        </Array>
                    </mxGeometry>
                </mxCell>
                <mxCell id="354" style="edgeStyle=none;jumpStyle=line;html=1;exitX=0;exitY=0.5;exitDx=0;exitDy=0;entryX=0.5;entryY=0;entryDx=0;entryDy=0;strokeColor=default;rounded=0;" parent="163" source="352" target="183" edge="1">
                    <mxGeometry relative="1" as="geometry">
                        <Array as="points">
                            <mxPoint x="673" y="80"/>
                        </Array>
                    </mxGeometry>
                </mxCell>
                <mxCell id="405" style="edgeStyle=none;html=1;exitX=1;exitY=0.5;exitDx=0;exitDy=0;entryX=0.5;entryY=0;entryDx=0;entryDy=0;rounded=0;" parent="163" source="400" target="181" edge="1">
                    <mxGeometry relative="1" as="geometry">
                        <Array as="points">
                            <mxPoint x="350" y="230"/>
                            <mxPoint x="350" y="110"/>
                            <mxPoint x="490" y="110"/>
                        </Array>
                    </mxGeometry>
                </mxCell>
                <mxCell id="167" value="Piping" style="shape=tableRow;horizontal=0;startSize=40;swimlaneHead=0;swimlaneBody=0;top=0;left=0;bottom=0;right=0;dropTarget=0;fillColor=none;collapsible=0;recursiveResize=0;expand=0;fontStyle=1;rounded=0;" parent="162" vertex="1">
                    <mxGeometry y="376" width="1520" height="378" as="geometry"/>
                </mxCell>
                <mxCell id="168" value="" style="swimlane;swimlaneHead=0;swimlaneBody=0;fontStyle=0;connectable=0;fillColor=none;startSize=0;collapsible=0;recursiveResize=0;expand=0;fontStyle=1;rounded=0;" parent="167" vertex="1">
                    <mxGeometry x="40" width="350" height="378" as="geometry">
                        <mxRectangle width="350" height="378" as="alternateBounds"/>
                    </mxGeometry>
                </mxCell>
                <mxCell id="224" value="DO&amp;nbsp;" style="shape=process;whiteSpace=wrap;html=1;backgroundOutline=1;rounded=0;" parent="168" vertex="1">
                    <mxGeometry x="115" y="53" width="120" height="40" as="geometry"/>
                </mxCell>
                <mxCell id="225" value="DO Receive&amp;nbsp;" style="shape=process;whiteSpace=wrap;html=1;backgroundOutline=1;rounded=0;" parent="168" vertex="1">
                    <mxGeometry x="115" y="113" width="120" height="40" as="geometry"/>
                </mxCell>
                <mxCell id="226" value="DO Request&amp;nbsp;" style="shape=process;whiteSpace=wrap;html=1;backgroundOutline=1;rounded=0;" parent="168" vertex="1">
                    <mxGeometry x="115" y="173" width="120" height="40" as="geometry"/>
                </mxCell>
                <mxCell id="228" value="DO Issue&amp;nbsp;" style="shape=process;whiteSpace=wrap;html=1;backgroundOutline=1;rounded=0;" parent="168" vertex="1">
                    <mxGeometry x="115" y="243" width="120" height="40" as="geometry"/>
                </mxCell>
                <mxCell id="229" value="" style="ellipse;whiteSpace=wrap;html=1;aspect=fixed;rounded=0;" parent="168" vertex="1">
                    <mxGeometry x="290" y="253" width="20" height="20" as="geometry"/>
                </mxCell>
                <mxCell id="227" style="edgeStyle=none;html=1;exitX=1;exitY=0.5;exitDx=0;exitDy=0;rounded=0;" parent="168" source="228" target="229" edge="1">
                    <mxGeometry relative="1" as="geometry"/>
                </mxCell>
                <mxCell id="169" value="" style="swimlane;swimlaneHead=0;swimlaneBody=0;fontStyle=0;connectable=0;fillColor=none;startSize=0;collapsible=0;recursiveResize=0;expand=0;fontStyle=1;rounded=0;" parent="167" vertex="1">
                    <mxGeometry x="390" width="670" height="378" as="geometry">
                        <mxRectangle width="670" height="378" as="alternateBounds"/>
                    </mxGeometry>
                </mxCell>
                <mxCell id="334" style="edgeStyle=none;html=1;exitX=1;exitY=0.5;exitDx=0;exitDy=0;entryX=0;entryY=0.5;entryDx=0;entryDy=0;rounded=0;" parent="169" source="230" target="231" edge="1">
                    <mxGeometry relative="1" as="geometry"/>
                </mxCell>
                <mxCell id="230" value="Fit Up" style="rounded=0;whiteSpace=wrap;html=1;" parent="169" vertex="1">
                    <mxGeometry x="44" y="64" width="120" height="40" as="geometry"/>
                </mxCell>
                <mxCell id="231" value="Weld Record" style="rounded=0;whiteSpace=wrap;html=1;" parent="169" vertex="1">
                    <mxGeometry x="227" y="64" width="120" height="40" as="geometry"/>
                </mxCell>
                <mxCell id="234" value="PIpe Installation" style="rounded=0;whiteSpace=wrap;html=1;" parent="169" vertex="1">
                    <mxGeometry x="227" y="158" width="120" height="40" as="geometry"/>
                </mxCell>
                <mxCell id="242" value="Insulation" style="rounded=0;whiteSpace=wrap;html=1;" parent="169" vertex="1">
                    <mxGeometry x="510" y="268" width="120" height="40" as="geometry"/>
                </mxCell>
                <mxCell id="361" style="edgeStyle=none;jumpStyle=line;html=1;exitX=0.5;exitY=1;exitDx=0;exitDy=0;entryX=0.5;entryY=0;entryDx=0;entryDy=0;strokeColor=default;rounded=0;" parent="169" source="244" target="242" edge="1">
                    <mxGeometry relative="1" as="geometry"/>
                </mxCell>
                <mxCell id="244" value="Paint" style="rounded=0;whiteSpace=wrap;html=1;" parent="169" vertex="1">
                    <mxGeometry x="510" y="198" width="120" height="40" as="geometry"/>
                </mxCell>
                <mxCell id="347" value="Valves Installation" style="rounded=0;whiteSpace=wrap;html=1;" parent="169" vertex="1">
                    <mxGeometry x="44" y="163" width="123" height="40" as="geometry"/>
                </mxCell>
                <mxCell id="348" value="Flange Management&amp;nbsp;" style="rounded=0;whiteSpace=wrap;html=1;" parent="169" vertex="1">
                    <mxGeometry x="44" y="244" width="123" height="40" as="geometry"/>
                </mxCell>
                <mxCell id="170" value="" style="swimlane;swimlaneHead=0;swimlaneBody=0;fontStyle=0;connectable=0;fillColor=none;startSize=0;collapsible=0;recursiveResize=0;expand=0;fontStyle=1;rounded=0;" parent="167" vertex="1">
                    <mxGeometry x="1060" width="460" height="378" as="geometry">
                        <mxRectangle width="460" height="378" as="alternateBounds"/>
                    </mxGeometry>
                </mxCell>
                <mxCell id="236" value="NDE Request" style="rounded=0;whiteSpace=wrap;html=1;" parent="170" vertex="1">
                    <mxGeometry x="60" y="74" width="120" height="40" as="geometry"/>
                </mxCell>
                <mxCell id="238" value="NDE Report" style="rounded=0;whiteSpace=wrap;html=1;" parent="170" vertex="1">
                    <mxGeometry x="250" y="74" width="120" height="40" as="geometry"/>
                </mxCell>
                <mxCell id="235" style="edgeStyle=none;html=1;exitX=1;exitY=0.5;exitDx=0;exitDy=0;entryX=0;entryY=0.5;entryDx=0;entryDy=0;rounded=0;" parent="170" source="236" target="238" edge="1">
                    <mxGeometry relative="1" as="geometry"/>
                </mxCell>
                <mxCell id="240" value="NDE Clear" style="rounded=0;whiteSpace=wrap;html=1;" parent="170" vertex="1">
                    <mxGeometry x="250" y="144" width="120" height="40" as="geometry"/>
                </mxCell>
                <mxCell id="237" style="edgeStyle=none;html=1;exitX=0.5;exitY=1;exitDx=0;exitDy=0;entryX=0.5;entryY=0;entryDx=0;entryDy=0;rounded=0;" parent="170" source="238" target="240" edge="1">
                    <mxGeometry relative="1" as="geometry"/>
                </mxCell>
                <mxCell id="241" value="Pack Status" style="rounded=0;whiteSpace=wrap;html=1;" parent="170" vertex="1">
                    <mxGeometry x="250" y="214" width="120" height="40" as="geometry"/>
                </mxCell>
                <mxCell id="239" style="edgeStyle=none;html=1;exitX=0.5;exitY=1;exitDx=0;exitDy=0;rounded=0;" parent="170" source="240" target="241" edge="1">
                    <mxGeometry relative="1" as="geometry"/>
                </mxCell>
                <mxCell id="357" style="edgeStyle=none;jumpStyle=line;html=1;exitX=0;exitY=0.5;exitDx=0;exitDy=0;entryX=1;entryY=0.5;entryDx=0;entryDy=0;strokeColor=default;rounded=0;" parent="170" source="355" target="356" edge="1">
                    <mxGeometry relative="1" as="geometry"/>
                </mxCell>
                <mxCell id="355" value="Welder&amp;nbsp;" style="rounded=0;whiteSpace=wrap;html=1;" parent="170" vertex="1">
                    <mxGeometry x="250" y="13" width="120" height="40" as="geometry"/>
                </mxCell>
                <mxCell id="356" value="WPS" style="rounded=0;whiteSpace=wrap;html=1;" parent="170" vertex="1">
                    <mxGeometry x="60" y="13" width="120" height="40" as="geometry"/>
                </mxCell>
                <mxCell id="233" style="edgeStyle=none;html=1;exitX=0.5;exitY=0;exitDx=0;exitDy=0;entryX=0;entryY=0.5;entryDx=0;entryDy=0;rounded=0;" parent="167" source="229" target="230" edge="1">
                    <mxGeometry relative="1" as="geometry">
                        <Array as="points">
                            <mxPoint x="340" y="84"/>
                        </Array>
                    </mxGeometry>
                </mxCell>
                <mxCell id="358" style="edgeStyle=none;jumpStyle=line;html=1;exitX=0;exitY=0.5;exitDx=0;exitDy=0;entryX=0.432;entryY=-0.028;entryDx=0;entryDy=0;entryPerimeter=0;strokeColor=default;rounded=0;" parent="167" source="356" target="231" edge="1">
                    <mxGeometry relative="1" as="geometry">
                        <Array as="points">
                            <mxPoint x="670" y="33"/>
                        </Array>
                    </mxGeometry>
                </mxCell>
                <mxCell id="360" style="edgeStyle=none;jumpStyle=line;html=1;exitX=0;exitY=0.5;exitDx=0;exitDy=0;entryX=0.5;entryY=0;entryDx=0;entryDy=0;strokeColor=default;rounded=0;" parent="167" source="240" target="244" edge="1">
                    <mxGeometry relative="1" as="geometry">
                        <Array as="points">
                            <mxPoint x="960" y="164"/>
                        </Array>
                    </mxGeometry>
                </mxCell>
                <mxCell id="171" value="Pipe Support" style="shape=tableRow;horizontal=0;startSize=40;swimlaneHead=0;swimlaneBody=0;top=0;left=0;bottom=0;right=0;dropTarget=0;fillColor=none;collapsible=0;recursiveResize=0;expand=0;fontStyle=1;rounded=0;" parent="162" vertex="1">
                    <mxGeometry y="754" width="1520" height="336" as="geometry"/>
                </mxCell>
                <mxCell id="172" value="" style="swimlane;swimlaneHead=0;swimlaneBody=0;fontStyle=0;connectable=0;fillColor=none;startSize=0;collapsible=0;recursiveResize=0;expand=0;fontStyle=1;rounded=0;" parent="171" vertex="1">
                    <mxGeometry x="40" width="350" height="336" as="geometry">
                        <mxRectangle width="350" height="336" as="alternateBounds"/>
                    </mxGeometry>
                </mxCell>
                <mxCell id="330" style="edgeStyle=none;html=1;exitX=1;exitY=0.5;exitDx=0;exitDy=0;entryX=0;entryY=0.5;entryDx=0;entryDy=0;rounded=0;" parent="172" source="323" target="328" edge="1">
                    <mxGeometry relative="1" as="geometry"/>
                </mxCell>
                <mxCell id="323" value="Pipe Support" style="shape=process;whiteSpace=wrap;html=1;backgroundOutline=1;rounded=0;" parent="172" vertex="1">
                    <mxGeometry x="110" y="158.5" width="120" height="40" as="geometry"/>
                </mxCell>
                <mxCell id="328" value="" style="ellipse;whiteSpace=wrap;html=1;aspect=fixed;rounded=0;" parent="172" vertex="1">
                    <mxGeometry x="290" y="168.5" width="20" height="20" as="geometry"/>
                </mxCell>
                <mxCell id="173" value="" style="swimlane;swimlaneHead=0;swimlaneBody=0;fontStyle=0;connectable=0;fillColor=none;startSize=0;collapsible=0;recursiveResize=0;expand=0;fontStyle=1;rounded=0;" parent="171" vertex="1">
                    <mxGeometry x="390" width="670" height="336" as="geometry">
                        <mxRectangle width="670" height="336" as="alternateBounds"/>
                    </mxGeometry>
                </mxCell>
                <mxCell id="325" style="edgeStyle=none;html=1;exitX=1;exitY=0.5;exitDx=0;exitDy=0;entryX=0;entryY=0.5;entryDx=0;entryDy=0;rounded=0;" parent="173" source="246" target="247" edge="1">
                    <mxGeometry relative="1" as="geometry"/>
                </mxCell>
                <mxCell id="246" value="Fit Up" style="rounded=0;whiteSpace=wrap;html=1;" parent="173" vertex="1">
                    <mxGeometry x="50" y="77" width="160" height="40" as="geometry"/>
                </mxCell>
                <mxCell id="247" value="Weld Record" style="rounded=0;whiteSpace=wrap;html=1;" parent="173" vertex="1">
                    <mxGeometry x="240" y="77" width="127" height="40" as="geometry"/>
                </mxCell>
                <mxCell id="248" value="PIpe Support Installation" style="rounded=0;whiteSpace=wrap;html=1;" parent="173" vertex="1">
                    <mxGeometry x="50" y="158.5" width="170" height="40" as="geometry"/>
                </mxCell>
                <mxCell id="249" value="Fireproof Pipe Support" style="rounded=0;whiteSpace=wrap;html=1;" parent="173" vertex="1">
                    <mxGeometry x="50" y="237" width="170" height="40" as="geometry"/>
                </mxCell>
                <mxCell id="174" value="" style="swimlane;swimlaneHead=0;swimlaneBody=0;fontStyle=0;connectable=0;fillColor=none;startSize=0;collapsible=0;recursiveResize=0;expand=0;fontStyle=1;rounded=0;" parent="171" vertex="1">
                    <mxGeometry x="1060" width="460" height="336" as="geometry">
                        <mxRectangle width="460" height="336" as="alternateBounds"/>
                    </mxGeometry>
                </mxCell>
                <mxCell id="331" style="edgeStyle=none;html=1;exitX=0.5;exitY=0;exitDx=0;exitDy=0;entryX=0;entryY=0.5;entryDx=0;entryDy=0;rounded=0;" parent="171" source="328" target="246" edge="1">
                    <mxGeometry relative="1" as="geometry">
                        <Array as="points">
                            <mxPoint x="340" y="97"/>
                        </Array>
                    </mxGeometry>
                </mxCell>
                <mxCell id="332" style="edgeStyle=none;html=1;exitX=0.5;exitY=1;exitDx=0;exitDy=0;entryX=0;entryY=0.5;entryDx=0;entryDy=0;rounded=0;" parent="171" source="328" target="249" edge="1">
                    <mxGeometry relative="1" as="geometry">
                        <Array as="points">
                            <mxPoint x="340" y="257"/>
                        </Array>
                    </mxGeometry>
                </mxCell>
                <mxCell id="333" style="edgeStyle=none;html=1;exitX=1;exitY=0.5;exitDx=0;exitDy=0;entryX=0;entryY=0.5;entryDx=0;entryDy=0;rounded=0;" parent="171" source="328" target="248" edge="1">
                    <mxGeometry relative="1" as="geometry"/>
                </mxCell>
                <mxCell id="260" value="Cross-Functional Flowchart" style="shape=table;childLayout=tableLayout;startSize=40;collapsible=0;recursiveResize=0;expand=0;fontStyle=1;rounded=0;" parent="1" vertex="1">
                    <mxGeometry x="90" y="1210" width="1520" height="1090" as="geometry"/>
                </mxCell>
                <mxCell id="261" value="Equipment" style="shape=tableRow;horizontal=0;startSize=40;swimlaneHead=0;swimlaneBody=0;top=0;left=0;bottom=0;right=0;dropTarget=0;fillColor=none;collapsible=0;recursiveResize=0;expand=0;fontStyle=1;rounded=0;" parent="260" vertex="1">
                    <mxGeometry y="40" width="1520" height="380" as="geometry"/>
                </mxCell>
                <mxCell id="262" value="Engineering" style="swimlane;swimlaneHead=0;swimlaneBody=0;fontStyle=0;connectable=0;fillColor=none;startSize=40;collapsible=0;recursiveResize=0;expand=0;fontStyle=1;rounded=0;" parent="261" vertex="1">
                    <mxGeometry x="40" width="350" height="380" as="geometry">
                        <mxRectangle width="350" height="380" as="alternateBounds"/>
                    </mxGeometry>
                </mxCell>
                <mxCell id="367" style="edgeStyle=none;html=1;exitX=0.5;exitY=1;exitDx=0;exitDy=0;entryX=0.5;entryY=0;entryDx=0;entryDy=0;rounded=0;" parent="262" source="362" target="363" edge="1">
                    <mxGeometry relative="1" as="geometry"/>
                </mxCell>
                <mxCell id="372" style="edgeStyle=none;html=1;exitX=0;exitY=0.5;exitDx=0;exitDy=0;entryX=0.5;entryY=0;entryDx=0;entryDy=0;rounded=0;" parent="262" source="362" target="371" edge="1">
                    <mxGeometry relative="1" as="geometry">
                        <Array as="points">
                            <mxPoint x="60" y="90"/>
                        </Array>
                    </mxGeometry>
                </mxCell>
                <mxCell id="362" value="Equipment List" style="rounded=0;whiteSpace=wrap;html=1;" parent="262" vertex="1">
                    <mxGeometry x="115" y="70" width="120" height="40" as="geometry"/>
                </mxCell>
                <mxCell id="363" value="BOM Material" style="rounded=0;whiteSpace=wrap;html=1;" parent="262" vertex="1">
                    <mxGeometry x="115" y="150" width="120" height="40" as="geometry"/>
                </mxCell>
                <mxCell id="364" value="BOM Fireproof" style="rounded=0;whiteSpace=wrap;html=1;" parent="262" vertex="1">
                    <mxGeometry x="115" y="220" width="120" height="40" as="geometry"/>
                </mxCell>
                <mxCell id="365" value="BOM Insulation" style="rounded=0;whiteSpace=wrap;html=1;" parent="262" vertex="1">
                    <mxGeometry x="115" y="290" width="120" height="40" as="geometry"/>
                </mxCell>
                <mxCell id="375" style="edgeStyle=none;html=1;exitX=0.5;exitY=1;exitDx=0;exitDy=0;entryX=0;entryY=0.5;entryDx=0;entryDy=0;rounded=0;" parent="262" source="371" target="365" edge="1">
                    <mxGeometry relative="1" as="geometry">
                        <Array as="points">
                            <mxPoint x="60" y="310"/>
                        </Array>
                    </mxGeometry>
                </mxCell>
                <mxCell id="376" style="edgeStyle=none;html=1;exitX=1;exitY=0.5;exitDx=0;exitDy=0;entryX=0;entryY=0.5;entryDx=0;entryDy=0;rounded=0;" parent="262" source="371" target="364" edge="1">
                    <mxGeometry relative="1" as="geometry"/>
                </mxCell>
                <mxCell id="371" value="" style="ellipse;whiteSpace=wrap;html=1;aspect=fixed;rounded=0;" parent="262" vertex="1">
                    <mxGeometry x="50" y="230" width="20" height="20" as="geometry"/>
                </mxCell>
                <mxCell id="269" value="Project Control" style="swimlane;swimlaneHead=0;swimlaneBody=0;fontStyle=0;connectable=0;fillColor=none;startSize=40;collapsible=0;recursiveResize=0;expand=0;fontStyle=1;rounded=0;" parent="261" vertex="1">
                    <mxGeometry x="390" width="670" height="380" as="geometry">
                        <mxRectangle width="670" height="380" as="alternateBounds"/>
                    </mxGeometry>
                </mxCell>
                <mxCell id="377" value="Fireproof" style="rounded=0;whiteSpace=wrap;html=1;" parent="269" vertex="1">
                    <mxGeometry x="40" y="220" width="120" height="40" as="geometry"/>
                </mxCell>
                <mxCell id="378" value="Insulation" style="rounded=0;whiteSpace=wrap;html=1;" parent="269" vertex="1">
                    <mxGeometry x="40" y="290" width="120" height="40" as="geometry"/>
                </mxCell>
                <mxCell id="392" style="edgeStyle=none;html=1;exitX=0.5;exitY=1;exitDx=0;exitDy=0;entryX=0.5;entryY=0;entryDx=0;entryDy=0;rounded=0;" parent="269" source="380" target="381" edge="1">
                    <mxGeometry relative="1" as="geometry"/>
                </mxCell>
                <mxCell id="380" value="Installation on Base" style="rounded=0;whiteSpace=wrap;html=1;" parent="269" vertex="1">
                    <mxGeometry x="200" y="70" width="120" height="40" as="geometry"/>
                </mxCell>
                <mxCell id="393" style="edgeStyle=none;html=1;exitX=0.5;exitY=1;exitDx=0;exitDy=0;entryX=0.5;entryY=0;entryDx=0;entryDy=0;rounded=0;" parent="269" source="381" target="382" edge="1">
                    <mxGeometry relative="1" as="geometry"/>
                </mxCell>
                <mxCell id="381" value="Firt Alignment" style="rounded=0;whiteSpace=wrap;html=1;" parent="269" vertex="1">
                    <mxGeometry x="200" y="150" width="120" height="40" as="geometry"/>
                </mxCell>
                <mxCell id="382" value="Final Alignment" style="rounded=0;whiteSpace=wrap;html=1;" parent="269" vertex="1">
                    <mxGeometry x="200" y="220" width="120" height="40" as="geometry"/>
                </mxCell>
                <mxCell id="396" style="edgeStyle=none;html=1;exitX=0.5;exitY=1;exitDx=0;exitDy=0;entryX=0.5;entryY=0;entryDx=0;entryDy=0;rounded=0;" parent="269" source="384" target="385" edge="1">
                    <mxGeometry relative="1" as="geometry"/>
                </mxCell>
                <mxCell id="384" value="Internal" style="rounded=0;whiteSpace=wrap;html=1;" parent="269" vertex="1">
                    <mxGeometry x="400" y="70" width="120" height="40" as="geometry"/>
                </mxCell>
                <mxCell id="397" style="edgeStyle=none;html=1;exitX=0.5;exitY=1;exitDx=0;exitDy=0;entryX=0.5;entryY=0;entryDx=0;entryDy=0;rounded=0;" parent="269" source="385" target="386" edge="1">
                    <mxGeometry relative="1" as="geometry"/>
                </mxCell>
                <mxCell id="385" value="BOX Up" style="rounded=0;whiteSpace=wrap;html=1;" parent="269" vertex="1">
                    <mxGeometry x="400" y="150" width="120" height="40" as="geometry"/>
                </mxCell>
                <mxCell id="398" style="edgeStyle=none;html=1;exitX=0.5;exitY=1;exitDx=0;exitDy=0;entryX=0.5;entryY=0;entryDx=0;entryDy=0;rounded=0;" parent="269" source="386" target="387" edge="1">
                    <mxGeometry relative="1" as="geometry"/>
                </mxCell>
                <mxCell id="386" value="Fastening" style="rounded=0;whiteSpace=wrap;html=1;" parent="269" vertex="1">
                    <mxGeometry x="400" y="220" width="120" height="40" as="geometry"/>
                </mxCell>
                <mxCell id="387" value="Final Inspection" style="rounded=0;whiteSpace=wrap;html=1;" parent="269" vertex="1">
                    <mxGeometry x="400" y="290" width="120" height="40" as="geometry"/>
                </mxCell>
                <mxCell id="279" value="QA/QC" style="swimlane;swimlaneHead=0;swimlaneBody=0;fontStyle=0;connectable=0;fillColor=none;startSize=40;collapsible=0;recursiveResize=0;expand=0;fontStyle=1;rounded=0;" parent="261" vertex="1">
                    <mxGeometry x="1060" width="460" height="380" as="geometry">
                        <mxRectangle width="460" height="380" as="alternateBounds"/>
                    </mxGeometry>
                </mxCell>
                <mxCell id="388" style="edgeStyle=none;html=1;exitX=1;exitY=0.5;exitDx=0;exitDy=0;rounded=0;" parent="261" source="364" target="377" edge="1">
                    <mxGeometry relative="1" as="geometry"/>
                </mxCell>
                <mxCell id="389" style="edgeStyle=none;html=1;exitX=1;exitY=0.5;exitDx=0;exitDy=0;rounded=0;" parent="261" source="365" target="378" edge="1">
                    <mxGeometry relative="1" as="geometry"/>
                </mxCell>
                <mxCell id="390" style="edgeStyle=none;html=1;exitX=1;exitY=0.5;exitDx=0;exitDy=0;rounded=0;" parent="261" source="362" target="380" edge="1">
                    <mxGeometry relative="1" as="geometry"/>
                </mxCell>
                <mxCell id="394" style="edgeStyle=none;html=1;exitX=0.5;exitY=0;exitDx=0;exitDy=0;entryX=0.549;entryY=0.025;entryDx=0;entryDy=0;entryPerimeter=0;rounded=0;" parent="261" source="362" target="384" edge="1">
                    <mxGeometry relative="1" as="geometry">
                        <Array as="points">
                            <mxPoint x="215" y="50"/>
                            <mxPoint x="530" y="50"/>
                            <mxPoint x="856" y="50"/>
                        </Array>
                    </mxGeometry>
                </mxCell>
                <mxCell id="291" value="E&amp;I" style="shape=tableRow;horizontal=0;startSize=40;swimlaneHead=0;swimlaneBody=0;top=0;left=0;bottom=0;right=0;dropTarget=0;fillColor=none;collapsible=0;recursiveResize=0;expand=0;fontStyle=1;rounded=0;" parent="260" vertex="1">
                    <mxGeometry y="420" width="1520" height="670" as="geometry"/>
                </mxCell>
                <mxCell id="292" value="" style="swimlane;swimlaneHead=0;swimlaneBody=0;fontStyle=0;connectable=0;fillColor=none;startSize=0;collapsible=0;recursiveResize=0;expand=0;fontStyle=1;rounded=0;" parent="291" vertex="1">
                    <mxGeometry x="40" width="350" height="670" as="geometry">
                        <mxRectangle width="350" height="670" as="alternateBounds"/>
                    </mxGeometry>
                </mxCell>
                <mxCell id="406" value="Equipment List" style="rounded=0;whiteSpace=wrap;html=1;" vertex="1" parent="292">
                    <mxGeometry x="115" y="50" width="120" height="40" as="geometry"/>
                </mxCell>
                <mxCell id="407" value="Equipment List" style="rounded=0;whiteSpace=wrap;html=1;" vertex="1" parent="292">
                    <mxGeometry x="115" y="110" width="120" height="40" as="geometry"/>
                </mxCell>
                <mxCell id="408" value="Equipment List" style="rounded=0;whiteSpace=wrap;html=1;" vertex="1" parent="292">
                    <mxGeometry x="115" y="170" width="120" height="40" as="geometry"/>
                </mxCell>
                <mxCell id="409" value="Equipment List" style="rounded=0;whiteSpace=wrap;html=1;" vertex="1" parent="292">
                    <mxGeometry x="115" y="240" width="120" height="40" as="geometry"/>
                </mxCell>
                <mxCell id="410" value="Equipment List" style="rounded=0;whiteSpace=wrap;html=1;" vertex="1" parent="292">
                    <mxGeometry x="115" y="330" width="120" height="40" as="geometry"/>
                </mxCell>
                <mxCell id="412" value="Equipment List" style="rounded=0;whiteSpace=wrap;html=1;" vertex="1" parent="292">
                    <mxGeometry x="115" y="390" width="120" height="40" as="geometry"/>
                </mxCell>
                <mxCell id="413" value="Equipment List" style="rounded=0;whiteSpace=wrap;html=1;" vertex="1" parent="292">
                    <mxGeometry x="115" y="450" width="120" height="40" as="geometry"/>
                </mxCell>
                <mxCell id="414" value="Equipment List" style="rounded=0;whiteSpace=wrap;html=1;" vertex="1" parent="292">
                    <mxGeometry x="115" y="520" width="120" height="40" as="geometry"/>
                </mxCell>
                <mxCell id="416" value="Equipment List" style="rounded=0;whiteSpace=wrap;html=1;" vertex="1" parent="292">
                    <mxGeometry x="115" y="590" width="120" height="40" as="geometry"/>
                </mxCell>
                <mxCell id="299" value="" style="swimlane;swimlaneHead=0;swimlaneBody=0;fontStyle=0;connectable=0;fillColor=none;startSize=0;collapsible=0;recursiveResize=0;expand=0;fontStyle=1;rounded=0;" parent="291" vertex="1">
                    <mxGeometry x="390" width="670" height="670" as="geometry">
                        <mxRectangle width="670" height="670" as="alternateBounds"/>
                    </mxGeometry>
                </mxCell>
                <mxCell id="306" value="" style="swimlane;swimlaneHead=0;swimlaneBody=0;fontStyle=0;connectable=0;fillColor=none;startSize=0;collapsible=0;recursiveResize=0;expand=0;fontStyle=1;rounded=0;" parent="291" vertex="1">
                    <mxGeometry x="1060" width="460" height="670" as="geometry">
                        <mxRectangle width="460" height="670" as="alternateBounds"/>
                    </mxGeometry>
                </mxCell>
            </root>
        </mxGraphModel>
    </diagram>
</mxfile>